<mxfile host="app.diagrams.net" modified="2023-09-28T01:33:47.825Z" agent="Mozilla/5.0 (Windows NT 10.0; Win64; x64) AppleWebKit/537.36 (KHTML, like Gecko) Chrome/117.0.0.0 Safari/537.36" etag="iiW07PTUzRPNTLEJP5IX" version="21.8.2" type="github">
  <diagram name="Page-1" id="97916047-d0de-89f5-080d-49f4d83e522f">
    <mxGraphModel dx="1434" dy="782" grid="1" gridSize="10" guides="1" tooltips="1" connect="1" arrows="1" fold="1" page="1" pageScale="1.5" pageWidth="1169" pageHeight="827" background="none" math="0" shadow="0">
      <root>
        <mxCell id="0" />
        <mxCell id="1" parent="0" />
        <mxCell id="2" value="UNSW Student Network" style="rounded=1;fillColor=#d5e8d4;strokeColor=#82b366;shadow=1;fontStyle=1;fontSize=14;align=center;" parent="1" vertex="1">
          <mxGeometry x="710" y="180" width="200" height="60" as="geometry" />
        </mxCell>
        <mxCell id="5" value="3. Platform design" style="rounded=1;fillColor=#d5e8d4;strokeColor=#82b366;shadow=1;fontStyle=0;fontSize=14;align=left;" parent="1" vertex="1">
          <mxGeometry x="590" y="330" width="123" height="60" as="geometry" />
        </mxCell>
        <mxCell id="6" value="1. Project management" style="rounded=1;fillColor=#d5e8d4;strokeColor=#82b366;shadow=1;fontStyle=0;fontSize=14;align=left;" parent="1" vertex="1">
          <mxGeometry x="10" y="330" width="150" height="60" as="geometry" />
        </mxCell>
        <mxCell id="spksn7wkr87Tgkmr4TmV-58" value="" style="elbow=vertical;strokeWidth=4;endArrow=none;endFill=0;fontStyle=0;strokeColor=#82b366;fillColor=#d5e8d4;exitX=0.5;exitY=1;exitDx=0;exitDy=0;edgeStyle=orthogonalEdgeStyle;align=left;" parent="1" edge="1">
          <mxGeometry x="22" y="165.5" width="100" height="100" as="geometry">
            <mxPoint x="40" y="390" as="sourcePoint" />
            <mxPoint x="40" y="1020" as="targetPoint" />
          </mxGeometry>
        </mxCell>
        <mxCell id="spksn7wkr87Tgkmr4TmV-60" value="1.1 Scope management" style="rounded=1;fillColor=#d5e8d4;strokeColor=#82B366;shadow=1;fontStyle=0;fontSize=14;align=left;" parent="1" vertex="1">
          <mxGeometry x="70" y="410" width="160" height="60" as="geometry" />
        </mxCell>
        <mxCell id="spksn7wkr87Tgkmr4TmV-61" value="" style="endArrow=none;html=1;rounded=1;entryX=0;entryY=0.5;entryDx=0;entryDy=0;strokeColor=#82B366;strokeWidth=4;endFill=0;fontStyle=0;align=left;" parent="1" target="spksn7wkr87Tgkmr4TmV-60" edge="1">
          <mxGeometry width="50" height="50" relative="1" as="geometry">
            <mxPoint x="40" y="440" as="sourcePoint" />
            <mxPoint x="130" y="540" as="targetPoint" />
          </mxGeometry>
        </mxCell>
        <mxCell id="spksn7wkr87Tgkmr4TmV-62" value="1.2 Funds and budget management" style="rounded=1;fillColor=#d5e8d4;strokeColor=#82B366;shadow=1;fontStyle=0;fontSize=14;align=left;" parent="1" vertex="1">
          <mxGeometry x="70" y="500" width="230" height="60" as="geometry" />
        </mxCell>
        <mxCell id="spksn7wkr87Tgkmr4TmV-63" value="" style="endArrow=none;html=1;rounded=1;entryX=0;entryY=0.5;entryDx=0;entryDy=0;strokeColor=#82B366;strokeWidth=4;endFill=0;fontStyle=0;align=left;" parent="1" target="spksn7wkr87Tgkmr4TmV-62" edge="1">
          <mxGeometry width="50" height="50" relative="1" as="geometry">
            <mxPoint x="40" y="530" as="sourcePoint" />
            <mxPoint x="100" y="450" as="targetPoint" />
          </mxGeometry>
        </mxCell>
        <mxCell id="spksn7wkr87Tgkmr4TmV-64" value="1.3 Stakeholders management" style="rounded=1;fillColor=#d5e8d4;strokeColor=#82B366;shadow=1;fontStyle=0;fontSize=14;align=left;" parent="1" vertex="1">
          <mxGeometry x="70" y="600" width="200" height="60" as="geometry" />
        </mxCell>
        <mxCell id="spksn7wkr87Tgkmr4TmV-65" value="" style="endArrow=none;html=1;rounded=1;entryX=0;entryY=0.5;entryDx=0;entryDy=0;strokeColor=#82B366;strokeWidth=4;endFill=0;fontStyle=0;align=left;" parent="1" target="spksn7wkr87Tgkmr4TmV-64" edge="1">
          <mxGeometry width="50" height="50" relative="1" as="geometry">
            <mxPoint x="40" y="630" as="sourcePoint" />
            <mxPoint x="100" y="540" as="targetPoint" />
          </mxGeometry>
        </mxCell>
        <mxCell id="spksn7wkr87Tgkmr4TmV-66" value="1.7 Project Schedule" style="rounded=1;fillColor=#d5e8d4;strokeColor=#82B366;shadow=1;fontStyle=0;fontSize=14;align=left;" parent="1" vertex="1">
          <mxGeometry x="70" y="990" width="140" height="60" as="geometry" />
        </mxCell>
        <mxCell id="spksn7wkr87Tgkmr4TmV-72" value="" style="endArrow=none;html=1;rounded=1;strokeColor=#82B366;strokeWidth=4;endFill=0;exitX=0.5;exitY=1;exitDx=0;exitDy=0;fontStyle=0;align=left;" parent="1" edge="1">
          <mxGeometry width="50" height="50" relative="1" as="geometry">
            <mxPoint x="618" y="390" as="sourcePoint" />
            <mxPoint x="618" y="960" as="targetPoint" />
          </mxGeometry>
        </mxCell>
        <mxCell id="spksn7wkr87Tgkmr4TmV-74" value="3.5 Web end UI design" style="rounded=1;fillColor=#d5e8d4;strokeColor=#82B366;shadow=1;fontStyle=0;fontSize=14;align=left;" parent="1" vertex="1">
          <mxGeometry x="646" y="830" width="154" height="60" as="geometry" />
        </mxCell>
        <mxCell id="spksn7wkr87Tgkmr4TmV-75" value="3.2 Database design" style="rounded=1;fillColor=#d5e8d4;strokeColor=#82B366;shadow=1;fontStyle=0;fontSize=14;align=left;" parent="1" vertex="1">
          <mxGeometry x="646" y="530" width="140" height="60" as="geometry" />
        </mxCell>
        <mxCell id="spksn7wkr87Tgkmr4TmV-76" value="3.4 Mobile App UI design" style="rounded=1;fillColor=#d5e8d4;strokeColor=#82B366;shadow=1;fontStyle=0;fontSize=14;align=left;" parent="1" vertex="1">
          <mxGeometry x="646" y="730" width="160" height="60" as="geometry" />
        </mxCell>
        <mxCell id="spksn7wkr87Tgkmr4TmV-77" value="2. Platform requirements analysis" style="rounded=1;fillColor=#d5e8d4;strokeColor=#82b366;shadow=1;fontStyle=0;fontSize=14;align=left;" parent="1" vertex="1">
          <mxGeometry x="300" y="330" width="220" height="60" as="geometry" />
        </mxCell>
        <mxCell id="spksn7wkr87Tgkmr4TmV-78" style="edgeStyle=orthogonalEdgeStyle;rounded=0;orthogonalLoop=1;jettySize=auto;html=1;exitX=0.5;exitY=1;exitDx=0;exitDy=0;fontStyle=0;align=left;" parent="1" edge="1">
          <mxGeometry relative="1" as="geometry">
            <mxPoint x="180" y="870" as="sourcePoint" />
            <mxPoint x="180" y="870" as="targetPoint" />
          </mxGeometry>
        </mxCell>
        <mxCell id="spksn7wkr87Tgkmr4TmV-79" value="3.1 Human–Computer Interaction logic" style="rounded=1;fillColor=#d5e8d4;strokeColor=#82B366;shadow=1;fontStyle=0;fontSize=14;align=left;" parent="1" vertex="1">
          <mxGeometry x="646" y="430" width="250" height="60" as="geometry" />
        </mxCell>
        <mxCell id="spksn7wkr87Tgkmr4TmV-80" value="3.6 System firewall design" style="rounded=1;fillColor=#d5e8d4;strokeColor=#82B366;shadow=1;fontStyle=0;fontSize=14;align=left;" parent="1" vertex="1">
          <mxGeometry x="646" y="930" width="180" height="60" as="geometry" />
        </mxCell>
        <mxCell id="spksn7wkr87Tgkmr4TmV-81" value="2.1 Functional Requirements " style="rounded=1;fillColor=#d5e8d4;strokeColor=#82B366;shadow=1;fontStyle=0;fontSize=14;align=left;" parent="1" vertex="1">
          <mxGeometry x="360" y="430" width="190" height="60" as="geometry" />
        </mxCell>
        <mxCell id="spksn7wkr87Tgkmr4TmV-82" value="2.2 Non-Functional Requirements" style="rounded=1;fillColor=#d5e8d4;strokeColor=#82B366;shadow=1;fontStyle=0;fontSize=14;align=left;" parent="1" vertex="1">
          <mxGeometry x="360" y="530" width="220" height="60" as="geometry" />
        </mxCell>
        <mxCell id="spksn7wkr87Tgkmr4TmV-83" value="2.3 Additional Requirements " style="rounded=1;fillColor=#d5e8d4;strokeColor=#82B366;shadow=1;fontStyle=0;fontSize=14;align=left;" parent="1" vertex="1">
          <mxGeometry x="360" y="620" width="180" height="60" as="geometry" />
        </mxCell>
        <mxCell id="spksn7wkr87Tgkmr4TmV-86" value="4. Software development" style="rounded=1;fillColor=#d5e8d4;strokeColor=#82b366;shadow=1;fontStyle=0;fontSize=14;align=left;" parent="1" vertex="1">
          <mxGeometry x="910" y="330" width="170" height="60" as="geometry" />
        </mxCell>
        <mxCell id="spksn7wkr87Tgkmr4TmV-87" value="4.6 System firewall development" style="rounded=1;fillColor=#d5e8d4;strokeColor=#82b366;shadow=1;fontStyle=0;fontSize=14;align=left;" parent="1" vertex="1">
          <mxGeometry x="970" y="900" width="220" height="60" as="geometry" />
        </mxCell>
        <mxCell id="spksn7wkr87Tgkmr4TmV-88" value="" style="endArrow=none;html=1;rounded=1;strokeColor=#82B366;strokeWidth=4;endFill=0;exitX=0.25;exitY=1;exitDx=0;exitDy=0;fontStyle=0;align=left;" parent="1" edge="1">
          <mxGeometry width="50" height="50" relative="1" as="geometry">
            <mxPoint x="330" y="390" as="sourcePoint" />
            <mxPoint x="330" y="650" as="targetPoint" />
          </mxGeometry>
        </mxCell>
        <mxCell id="spksn7wkr87Tgkmr4TmV-94" value="" style="endArrow=none;html=1;rounded=1;strokeColor=#82B366;strokeWidth=4;endFill=0;entryX=0;entryY=0.5;entryDx=0;entryDy=0;fontStyle=0;align=left;" parent="1" target="spksn7wkr87Tgkmr4TmV-82" edge="1">
          <mxGeometry width="50" height="50" relative="1" as="geometry">
            <mxPoint x="330" y="560" as="sourcePoint" />
            <mxPoint x="350" y="570" as="targetPoint" />
          </mxGeometry>
        </mxCell>
        <mxCell id="spksn7wkr87Tgkmr4TmV-95" value="" style="endArrow=none;html=1;rounded=1;entryX=0;entryY=0.5;entryDx=0;entryDy=0;strokeColor=#82B366;strokeWidth=4;endFill=0;fontStyle=0;align=left;" parent="1" target="spksn7wkr87Tgkmr4TmV-81" edge="1">
          <mxGeometry width="50" height="50" relative="1" as="geometry">
            <mxPoint x="330" y="460" as="sourcePoint" />
            <mxPoint x="350" y="470" as="targetPoint" />
          </mxGeometry>
        </mxCell>
        <mxCell id="spksn7wkr87Tgkmr4TmV-96" value="" style="endArrow=none;html=1;rounded=1;strokeColor=#82B366;strokeWidth=4;endFill=0;entryX=0;entryY=0.5;entryDx=0;entryDy=0;fontStyle=0;align=left;" parent="1" target="spksn7wkr87Tgkmr4TmV-83" edge="1">
          <mxGeometry width="50" height="50" relative="1" as="geometry">
            <mxPoint x="330" y="649.71" as="sourcePoint" />
            <mxPoint x="350" y="670" as="targetPoint" />
          </mxGeometry>
        </mxCell>
        <mxCell id="spksn7wkr87Tgkmr4TmV-97" value="4.5 Web end development" style="rounded=1;fillColor=#d5e8d4;strokeColor=#82B366;shadow=1;fontStyle=0;fontSize=14;align=left;" parent="1" vertex="1">
          <mxGeometry x="970" y="800" width="180" height="60" as="geometry" />
        </mxCell>
        <mxCell id="spksn7wkr87Tgkmr4TmV-98" value="" style="endArrow=none;html=1;rounded=1;strokeColor=#82B366;strokeWidth=4;endFill=0;exitX=0.25;exitY=1;exitDx=0;exitDy=0;fontStyle=0;align=left;" parent="1" edge="1">
          <mxGeometry width="50" height="50" relative="1" as="geometry">
            <mxPoint x="940.9999999999998" y="390" as="sourcePoint" />
            <mxPoint x="940" y="930" as="targetPoint" />
          </mxGeometry>
        </mxCell>
        <mxCell id="spksn7wkr87Tgkmr4TmV-99" value="4.4 Mobile App development" style="rounded=1;fillColor=#d5e8d4;strokeColor=#82B366;shadow=1;fontStyle=0;fontSize=14;align=left;" parent="1" vertex="1">
          <mxGeometry x="970" y="700" width="190" height="60" as="geometry" />
        </mxCell>
        <mxCell id="spksn7wkr87Tgkmr4TmV-100" value="4.2 Database implementation" style="rounded=1;fillColor=#d5e8d4;strokeColor=#82B366;shadow=1;fontStyle=0;fontSize=14;align=left;" parent="1" vertex="1">
          <mxGeometry x="970" y="520" width="190" height="60" as="geometry" />
        </mxCell>
        <mxCell id="spksn7wkr87Tgkmr4TmV-103" value="5. Platform testing" style="rounded=1;fillColor=#d5e8d4;strokeColor=#82b366;shadow=1;fontStyle=0;fontSize=14;align=left;" parent="1" vertex="1">
          <mxGeometry x="1200" y="330" width="120" height="60" as="geometry" />
        </mxCell>
        <mxCell id="spksn7wkr87Tgkmr4TmV-104" value="5.1 Functional integration testing" style="rounded=1;fillColor=#d5e8d4;strokeColor=#82b366;shadow=1;fontStyle=0;fontSize=14;align=left;" parent="1" vertex="1">
          <mxGeometry x="1271" y="430" width="210" height="60" as="geometry" />
        </mxCell>
        <mxCell id="spksn7wkr87Tgkmr4TmV-105" value="" style="endArrow=none;html=1;rounded=1;strokeColor=#82B366;strokeWidth=4;endFill=0;exitX=0.25;exitY=1;exitDx=0;exitDy=0;fontStyle=0;align=left;" parent="1" edge="1">
          <mxGeometry width="50" height="50" relative="1" as="geometry">
            <mxPoint x="1232" y="390" as="sourcePoint" />
            <mxPoint x="1232" y="940" as="targetPoint" />
          </mxGeometry>
        </mxCell>
        <mxCell id="spksn7wkr87Tgkmr4TmV-106" value="5.2 Security testing" style="rounded=1;fillColor=#d5e8d4;strokeColor=#82b366;shadow=1;fontStyle=0;fontSize=14;align=left;" parent="1" vertex="1">
          <mxGeometry x="1271" y="530" width="130" height="60" as="geometry" />
        </mxCell>
        <mxCell id="spksn7wkr87Tgkmr4TmV-107" value="5.3 Load testing" style="rounded=1;fillColor=#d5e8d4;strokeColor=#82b366;shadow=1;fontStyle=0;fontSize=14;align=left;" parent="1" vertex="1">
          <mxGeometry x="1271" y="620" width="109" height="60" as="geometry" />
        </mxCell>
        <mxCell id="spksn7wkr87Tgkmr4TmV-108" value="5.4 User acceptance testing" style="rounded=1;fillColor=#d5e8d4;strokeColor=#82b366;shadow=1;fontStyle=0;fontSize=14;align=left;" parent="1" vertex="1">
          <mxGeometry x="1270" y="720" width="180" height="60" as="geometry" />
        </mxCell>
        <mxCell id="spksn7wkr87Tgkmr4TmV-111" value="" style="endArrow=none;html=1;rounded=1;entryX=0;entryY=0.5;entryDx=0;entryDy=0;strokeColor=#82B366;strokeWidth=4;endFill=0;fontStyle=0;align=left;" parent="1" target="spksn7wkr87Tgkmr4TmV-79" edge="1">
          <mxGeometry width="50" height="50" relative="1" as="geometry">
            <mxPoint x="616" y="460" as="sourcePoint" />
            <mxPoint x="636" y="470" as="targetPoint" />
          </mxGeometry>
        </mxCell>
        <mxCell id="spksn7wkr87Tgkmr4TmV-112" value="" style="endArrow=none;html=1;rounded=1;entryX=0;entryY=0.5;entryDx=0;entryDy=0;strokeColor=#82B366;strokeWidth=4;endFill=0;fontStyle=0;align=left;" parent="1" target="spksn7wkr87Tgkmr4TmV-75" edge="1">
          <mxGeometry width="50" height="50" relative="1" as="geometry">
            <mxPoint x="616" y="560" as="sourcePoint" />
            <mxPoint x="648" y="550" as="targetPoint" />
          </mxGeometry>
        </mxCell>
        <mxCell id="spksn7wkr87Tgkmr4TmV-113" value="" style="endArrow=none;html=1;rounded=1;entryX=0;entryY=0.5;entryDx=0;entryDy=0;strokeColor=#82B366;strokeWidth=4;endFill=0;fontStyle=0;align=left;" parent="1" edge="1">
          <mxGeometry width="50" height="50" relative="1" as="geometry">
            <mxPoint x="616" y="650" as="sourcePoint" />
            <mxPoint x="646" y="649.73" as="targetPoint" />
          </mxGeometry>
        </mxCell>
        <mxCell id="spksn7wkr87Tgkmr4TmV-127" value="6. Customer support" style="rounded=1;fillColor=#d5e8d4;strokeColor=#82b366;shadow=1;fontStyle=0;fontSize=14;align=left;" parent="1" vertex="1">
          <mxGeometry x="1481" y="330" width="140" height="60" as="geometry" />
        </mxCell>
        <mxCell id="spksn7wkr87Tgkmr4TmV-129" value="6.1 Instructions for use" style="rounded=1;fillColor=#d5e8d4;strokeColor=#82B366;shadow=1;fontStyle=0;fontSize=14;align=left;" parent="1" vertex="1">
          <mxGeometry x="1541" y="430" width="150" height="60" as="geometry" />
        </mxCell>
        <mxCell id="spksn7wkr87Tgkmr4TmV-130" value="" style="endArrow=none;html=1;rounded=1;strokeColor=#82B366;strokeWidth=4;endFill=0;exitX=0.25;exitY=1;exitDx=0;exitDy=0;fontStyle=0;align=left;" parent="1" edge="1">
          <mxGeometry width="50" height="50" relative="1" as="geometry">
            <mxPoint x="1511.9999999999998" y="390" as="sourcePoint" />
            <mxPoint x="1512" y="650" as="targetPoint" />
          </mxGeometry>
        </mxCell>
        <mxCell id="spksn7wkr87Tgkmr4TmV-131" value="6.2 Precautions " style="rounded=1;fillColor=#d5e8d4;strokeColor=#82B366;shadow=1;fontStyle=0;fontSize=14;align=left;" parent="1" vertex="1">
          <mxGeometry x="1541" y="530" width="110" height="60" as="geometry" />
        </mxCell>
        <mxCell id="spksn7wkr87Tgkmr4TmV-136" value="" style="endArrow=none;html=1;rounded=1;entryX=0;entryY=0.5;entryDx=0;entryDy=0;strokeColor=#82B366;strokeWidth=4;endFill=0;fontStyle=0;align=left;" parent="1" edge="1">
          <mxGeometry width="50" height="50" relative="1" as="geometry">
            <mxPoint x="1511" y="650" as="sourcePoint" />
            <mxPoint x="1541" y="650" as="targetPoint" />
          </mxGeometry>
        </mxCell>
        <mxCell id="spksn7wkr87Tgkmr4TmV-137" value="" style="endArrow=none;html=1;rounded=1;entryX=0;entryY=0.5;entryDx=0;entryDy=0;strokeColor=#82B366;strokeWidth=4;endFill=0;fontStyle=0;align=left;" parent="1" target="spksn7wkr87Tgkmr4TmV-131" edge="1">
          <mxGeometry width="50" height="50" relative="1" as="geometry">
            <mxPoint x="1511" y="560" as="sourcePoint" />
            <mxPoint x="1571" y="880" as="targetPoint" />
          </mxGeometry>
        </mxCell>
        <mxCell id="spksn7wkr87Tgkmr4TmV-138" value="" style="endArrow=none;html=1;rounded=1;entryX=0;entryY=0.5;entryDx=0;entryDy=0;strokeColor=#82B366;strokeWidth=4;endFill=0;fontStyle=0;align=left;" parent="1" target="spksn7wkr87Tgkmr4TmV-129" edge="1">
          <mxGeometry width="50" height="50" relative="1" as="geometry">
            <mxPoint x="1511" y="460" as="sourcePoint" />
            <mxPoint x="1581" y="890" as="targetPoint" />
          </mxGeometry>
        </mxCell>
        <mxCell id="spksn7wkr87Tgkmr4TmV-140" value="" style="endArrow=none;html=1;rounded=1;entryX=0;entryY=0.5;entryDx=0;entryDy=0;strokeColor=#82B366;strokeWidth=4;endFill=0;fontStyle=0;align=left;" parent="1" target="spksn7wkr87Tgkmr4TmV-108" edge="1">
          <mxGeometry width="50" height="50" relative="1" as="geometry">
            <mxPoint x="1230" y="750" as="sourcePoint" />
            <mxPoint x="1300" y="810" as="targetPoint" />
          </mxGeometry>
        </mxCell>
        <mxCell id="spksn7wkr87Tgkmr4TmV-141" value="" style="endArrow=none;html=1;rounded=1;entryX=0;entryY=0.5;entryDx=0;entryDy=0;strokeColor=#82B366;strokeWidth=4;endFill=0;fontStyle=0;align=left;" parent="1" edge="1">
          <mxGeometry width="50" height="50" relative="1" as="geometry">
            <mxPoint x="1230" y="649.64" as="sourcePoint" />
            <mxPoint x="1270" y="649.64" as="targetPoint" />
          </mxGeometry>
        </mxCell>
        <mxCell id="spksn7wkr87Tgkmr4TmV-142" value="" style="endArrow=none;html=1;rounded=1;entryX=0;entryY=0.5;entryDx=0;entryDy=0;strokeColor=#82B366;strokeWidth=4;endFill=0;fontStyle=0;align=left;" parent="1" edge="1">
          <mxGeometry width="50" height="50" relative="1" as="geometry">
            <mxPoint x="1230" y="560" as="sourcePoint" />
            <mxPoint x="1270" y="560" as="targetPoint" />
          </mxGeometry>
        </mxCell>
        <mxCell id="spksn7wkr87Tgkmr4TmV-143" value="" style="endArrow=none;html=1;rounded=1;entryX=0;entryY=0.5;entryDx=0;entryDy=0;strokeColor=#82B366;strokeWidth=4;endFill=0;fontStyle=0;align=left;" parent="1" edge="1">
          <mxGeometry width="50" height="50" relative="1" as="geometry">
            <mxPoint x="1230" y="459.64" as="sourcePoint" />
            <mxPoint x="1270" y="459.64" as="targetPoint" />
          </mxGeometry>
        </mxCell>
        <mxCell id="spksn7wkr87Tgkmr4TmV-144" value="6.3 Project reflection" style="rounded=1;fillColor=#d5e8d4;strokeColor=#82B366;shadow=1;fontStyle=0;fontSize=14;align=left;" parent="1" vertex="1">
          <mxGeometry x="1541" y="620" width="140" height="60" as="geometry" />
        </mxCell>
        <mxCell id="spksn7wkr87Tgkmr4TmV-146" value="" style="endArrow=none;html=1;rounded=0;strokeColor=#82B366;endFill=0;strokeWidth=4;exitX=0.5;exitY=1;exitDx=0;exitDy=0;entryX=0.5;entryY=0;entryDx=0;entryDy=0;edgeStyle=orthogonalEdgeStyle;align=left;" parent="1" source="2" target="spksn7wkr87Tgkmr4TmV-86" edge="1">
          <mxGeometry width="50" height="50" relative="1" as="geometry">
            <mxPoint x="1050" y="330" as="sourcePoint" />
            <mxPoint x="1100" y="280" as="targetPoint" />
          </mxGeometry>
        </mxCell>
        <mxCell id="spksn7wkr87Tgkmr4TmV-147" value="" style="endArrow=none;html=1;rounded=0;strokeColor=#82B366;endFill=0;strokeWidth=4;exitX=0.5;exitY=1;exitDx=0;exitDy=0;entryX=0.5;entryY=0;entryDx=0;entryDy=0;edgeStyle=orthogonalEdgeStyle;align=left;" parent="1" source="2" target="6" edge="1">
          <mxGeometry width="50" height="50" relative="1" as="geometry">
            <mxPoint x="860" y="250" as="sourcePoint" />
            <mxPoint x="1000" y="450" as="targetPoint" />
          </mxGeometry>
        </mxCell>
        <mxCell id="spksn7wkr87Tgkmr4TmV-149" value="" style="endArrow=none;html=1;rounded=0;strokeColor=#82B366;endFill=0;strokeWidth=4;exitX=0.5;exitY=1;exitDx=0;exitDy=0;entryX=0.5;entryY=0;entryDx=0;entryDy=0;edgeStyle=orthogonalEdgeStyle;align=left;" parent="1" source="2" target="spksn7wkr87Tgkmr4TmV-77" edge="1">
          <mxGeometry width="50" height="50" relative="1" as="geometry">
            <mxPoint x="860" y="250" as="sourcePoint" />
            <mxPoint x="120" y="450" as="targetPoint" />
          </mxGeometry>
        </mxCell>
        <mxCell id="spksn7wkr87Tgkmr4TmV-150" value="" style="endArrow=none;html=1;rounded=0;strokeColor=#82B366;endFill=0;strokeWidth=4;exitX=0.5;exitY=1;exitDx=0;exitDy=0;entryX=0.5;entryY=0;entryDx=0;entryDy=0;edgeStyle=orthogonalEdgeStyle;align=left;" parent="1" source="2" target="5" edge="1">
          <mxGeometry width="50" height="50" relative="1" as="geometry">
            <mxPoint x="870" y="260" as="sourcePoint" />
            <mxPoint x="130" y="460" as="targetPoint" />
          </mxGeometry>
        </mxCell>
        <mxCell id="spksn7wkr87Tgkmr4TmV-151" value="" style="endArrow=none;html=1;rounded=0;strokeColor=#82B366;endFill=0;strokeWidth=4;exitX=0.5;exitY=1;exitDx=0;exitDy=0;entryX=0.5;entryY=0;entryDx=0;entryDy=0;edgeStyle=orthogonalEdgeStyle;align=left;" parent="1" source="2" target="spksn7wkr87Tgkmr4TmV-103" edge="1">
          <mxGeometry width="50" height="50" relative="1" as="geometry">
            <mxPoint x="880" y="270" as="sourcePoint" />
            <mxPoint x="140" y="470" as="targetPoint" />
          </mxGeometry>
        </mxCell>
        <mxCell id="spksn7wkr87Tgkmr4TmV-152" value="" style="endArrow=none;html=1;rounded=0;strokeColor=#82B366;endFill=0;strokeWidth=4;exitX=0.5;exitY=1;exitDx=0;exitDy=0;entryX=0.5;entryY=0;entryDx=0;entryDy=0;edgeStyle=orthogonalEdgeStyle;align=left;" parent="1" source="2" target="spksn7wkr87Tgkmr4TmV-127" edge="1">
          <mxGeometry width="50" height="50" relative="1" as="geometry">
            <mxPoint x="890" y="280" as="sourcePoint" />
            <mxPoint x="150" y="480" as="targetPoint" />
          </mxGeometry>
        </mxCell>
        <mxCell id="HMT50Ie3Nu9b8irFiOJ8-7" value="" style="endArrow=none;html=1;rounded=1;entryX=0;entryY=0.5;entryDx=0;entryDy=0;strokeColor=#82B366;strokeWidth=4;endFill=0;fontStyle=0;align=left;" parent="1" target="spksn7wkr87Tgkmr4TmV-76" edge="1">
          <mxGeometry width="50" height="50" relative="1" as="geometry">
            <mxPoint x="616" y="760" as="sourcePoint" />
            <mxPoint x="583" y="770" as="targetPoint" />
          </mxGeometry>
        </mxCell>
        <mxCell id="HMT50Ie3Nu9b8irFiOJ8-8" value="" style="endArrow=none;html=1;rounded=1;entryX=0;entryY=0.5;entryDx=0;entryDy=0;strokeColor=#82B366;strokeWidth=4;endFill=0;fontStyle=0;align=left;" parent="1" target="spksn7wkr87Tgkmr4TmV-74" edge="1">
          <mxGeometry width="50" height="50" relative="1" as="geometry">
            <mxPoint x="616" y="860" as="sourcePoint" />
            <mxPoint x="666" y="669.73" as="targetPoint" />
          </mxGeometry>
        </mxCell>
        <mxCell id="HMT50Ie3Nu9b8irFiOJ8-9" value="" style="endArrow=none;html=1;rounded=1;entryX=0;entryY=0.5;entryDx=0;entryDy=0;strokeColor=#82B366;strokeWidth=4;endFill=0;fontStyle=0;align=left;" parent="1" target="spksn7wkr87Tgkmr4TmV-80" edge="1">
          <mxGeometry width="50" height="50" relative="1" as="geometry">
            <mxPoint x="616" y="960" as="sourcePoint" />
            <mxPoint x="676" y="679.73" as="targetPoint" />
          </mxGeometry>
        </mxCell>
        <mxCell id="HMT50Ie3Nu9b8irFiOJ8-10" value="3.3 API services design" style="rounded=1;fillColor=#d5e8d4;strokeColor=#82B366;shadow=1;fontStyle=0;fontSize=14;align=left;" parent="1" vertex="1">
          <mxGeometry x="646" y="630" width="154" height="60" as="geometry" />
        </mxCell>
        <mxCell id="HMT50Ie3Nu9b8irFiOJ8-11" value="4.3 API services development" style="rounded=1;fillColor=#d5e8d4;strokeColor=#82B366;shadow=1;fontStyle=0;fontSize=14;align=left;" parent="1" vertex="1">
          <mxGeometry x="970" y="610" width="200" height="60" as="geometry" />
        </mxCell>
        <mxCell id="HMT50Ie3Nu9b8irFiOJ8-12" value="" style="endArrow=none;html=1;rounded=1;entryX=0;entryY=0.5;entryDx=0;entryDy=0;strokeColor=#82B366;strokeWidth=4;endFill=0;fontStyle=0;align=left;" parent="1" target="spksn7wkr87Tgkmr4TmV-100" edge="1">
          <mxGeometry width="50" height="50" relative="1" as="geometry">
            <mxPoint x="940" y="550" as="sourcePoint" />
            <mxPoint x="656" y="660" as="targetPoint" />
          </mxGeometry>
        </mxCell>
        <mxCell id="HMT50Ie3Nu9b8irFiOJ8-14" value="" style="endArrow=none;html=1;rounded=1;entryX=0;entryY=0.5;entryDx=0;entryDy=0;strokeColor=#82B366;strokeWidth=4;endFill=0;fontStyle=0;align=left;" parent="1" target="HMT50Ie3Nu9b8irFiOJ8-11" edge="1">
          <mxGeometry width="50" height="50" relative="1" as="geometry">
            <mxPoint x="940" y="640" as="sourcePoint" />
            <mxPoint x="980" y="560" as="targetPoint" />
          </mxGeometry>
        </mxCell>
        <mxCell id="HMT50Ie3Nu9b8irFiOJ8-15" value="" style="endArrow=none;html=1;rounded=1;entryX=0;entryY=0.5;entryDx=0;entryDy=0;strokeColor=#82B366;strokeWidth=4;endFill=0;fontStyle=0;align=left;" parent="1" target="spksn7wkr87Tgkmr4TmV-99" edge="1">
          <mxGeometry width="50" height="50" relative="1" as="geometry">
            <mxPoint x="940" y="730" as="sourcePoint" />
            <mxPoint x="990" y="570" as="targetPoint" />
          </mxGeometry>
        </mxCell>
        <mxCell id="HMT50Ie3Nu9b8irFiOJ8-16" value="" style="endArrow=none;html=1;rounded=1;entryX=0;entryY=0.5;entryDx=0;entryDy=0;strokeColor=#82B366;strokeWidth=4;endFill=0;fontStyle=0;align=left;" parent="1" target="spksn7wkr87Tgkmr4TmV-97" edge="1">
          <mxGeometry width="50" height="50" relative="1" as="geometry">
            <mxPoint x="940" y="830" as="sourcePoint" />
            <mxPoint x="1000" y="580" as="targetPoint" />
          </mxGeometry>
        </mxCell>
        <mxCell id="HMT50Ie3Nu9b8irFiOJ8-17" value="" style="endArrow=none;html=1;rounded=1;entryX=0;entryY=0.5;entryDx=0;entryDy=0;strokeColor=#82B366;strokeWidth=4;endFill=0;fontStyle=0;align=left;" parent="1" target="spksn7wkr87Tgkmr4TmV-87" edge="1">
          <mxGeometry width="50" height="50" relative="1" as="geometry">
            <mxPoint x="940" y="930" as="sourcePoint" />
            <mxPoint x="1010" y="590" as="targetPoint" />
          </mxGeometry>
        </mxCell>
        <mxCell id="HMT50Ie3Nu9b8irFiOJ8-21" value="5.5 Compatibility testing" style="rounded=1;fillColor=#d5e8d4;strokeColor=#82b366;shadow=1;fontStyle=0;fontSize=14;align=left;" parent="1" vertex="1">
          <mxGeometry x="1271" y="820" width="159" height="60" as="geometry" />
        </mxCell>
        <mxCell id="HMT50Ie3Nu9b8irFiOJ8-23" value="" style="endArrow=none;html=1;rounded=1;entryX=0;entryY=0.5;entryDx=0;entryDy=0;strokeColor=#82B366;strokeWidth=4;endFill=0;fontStyle=0;align=left;" parent="1" target="HMT50Ie3Nu9b8irFiOJ8-21" edge="1">
          <mxGeometry width="50" height="50" relative="1" as="geometry">
            <mxPoint x="1230" y="850" as="sourcePoint" />
            <mxPoint x="1280" y="760" as="targetPoint" />
          </mxGeometry>
        </mxCell>
        <mxCell id="HMT50Ie3Nu9b8irFiOJ8-24" value="5.6 Testing feedback and Project perfection" style="rounded=1;fillColor=#d5e8d4;strokeColor=#82b366;shadow=1;fontStyle=0;fontSize=14;align=left;" parent="1" vertex="1">
          <mxGeometry x="1271" y="910" width="279" height="60" as="geometry" />
        </mxCell>
        <mxCell id="HMT50Ie3Nu9b8irFiOJ8-25" value="" style="endArrow=none;html=1;rounded=1;entryX=0;entryY=0.5;entryDx=0;entryDy=0;strokeColor=#82B366;strokeWidth=4;endFill=0;fontStyle=0;align=left;" parent="1" target="HMT50Ie3Nu9b8irFiOJ8-24" edge="1">
          <mxGeometry width="50" height="50" relative="1" as="geometry">
            <mxPoint x="1230" y="940" as="sourcePoint" />
            <mxPoint x="1281" y="860" as="targetPoint" />
          </mxGeometry>
        </mxCell>
        <mxCell id="UxzOdiLZp154J1V549cc-6" value="1.4 Functional analysis " style="rounded=1;fillColor=#d5e8d4;strokeColor=#82B366;shadow=1;fontStyle=0;fontSize=14;align=left;" vertex="1" parent="1">
          <mxGeometry x="70" y="700" width="150" height="60" as="geometry" />
        </mxCell>
        <mxCell id="UxzOdiLZp154J1V549cc-7" value="1.5 Non-Functional analysis" style="rounded=1;fillColor=#d5e8d4;strokeColor=#82B366;shadow=1;fontStyle=0;fontSize=14;align=left;" vertex="1" parent="1">
          <mxGeometry x="70" y="800" width="180" height="60" as="geometry" />
        </mxCell>
        <mxCell id="UxzOdiLZp154J1V549cc-8" value="1.6 Additional analysis " style="rounded=1;fillColor=#d5e8d4;strokeColor=#82B366;shadow=1;fontStyle=0;fontSize=14;align=left;" vertex="1" parent="1">
          <mxGeometry x="70" y="890" width="150" height="60" as="geometry" />
        </mxCell>
      </root>
    </mxGraphModel>
  </diagram>
</mxfile>
